<?xml version="1.0" standalone="no"?>
<!DOCTYPE svg PUBLIC "-//W3C//DTD SVG 20010904//EN"
 "http://www.w3.org/TR/2001/REC-SVG-20010904/DTD/svg10.dtd">
<svg version="1.0" xmlns="http://www.w3.org/2000/svg"
 width="3019.000000pt" height="3019.000000pt" viewBox="0 0 3019.000000 3019.000000"
 preserveAspectRatio="xMidYMid meet">
<metadata>
Created by potrace 1.14, written by Peter Selinger 2001-2017
</metadata>
<g transform="translate(0.000000,3019.000000) scale(0.100000,-0.100000)"
fill="#000000" stroke="none">
<path d="M26013 30183 c3 -5 8 -33 11 -63 7 -60 14 -104 21 -136 3 -12 7 -39
11 -60 8 -53 68 -248 93 -304 l20 -45 0 308 1 307 -81 0 c-44 0 -78 -3 -76 -7z"/>
<path d="M6977 29954 c-1 -1 -42 -5 -92 -8 -478 -34 -916 -254 -1215 -612
-241 -287 -390 -637 -428 -1009 -9 -91 -8 -455 1 -565 15 -165 19 -196 42
-335 43 -253 141 -590 226 -780 12 -27 23 -52 24 -55 5 -21 61 -138 121 -255
247 -484 598 -945 1110 -1459 110 -110 360 -348 464 -442 36 -32 70 -63 76
-69 10 -9 75 -66 184 -160 251 -217 569 -473 830 -668 63 -47 120 -90 125 -94
34 -28 371 -270 575 -412 63 -44 692 -464 743 -496 9 -5 143 -91 299 -189 156
-99 308 -195 338 -214 30 -19 67 -43 82 -53 15 -11 29 -19 31 -19 3 0 101 -59
218 -130 118 -72 221 -134 229 -139 116 -70 591 -359 640 -390 36 -22 85 -52
110 -67 284 -169 1059 -675 1409 -920 62 -43 120 -83 130 -89 9 -5 18 -13 21
-16 3 -3 28 -21 55 -39 28 -19 55 -38 60 -42 8 -7 173 -127 283 -206 103 -74
570 -429 582 -442 3 -3 46 -37 95 -75 50 -38 101 -79 115 -91 14 -12 90 -75
170 -140 120 -98 503 -424 575 -490 11 -11 61 -55 110 -99 49 -44 99 -89 111
-100 12 -11 81 -76 155 -145 146 -136 573 -561 709 -706 177 -188 218 -232
304 -329 50 -55 99 -109 110 -121 12 -12 30 -32 41 -45 11 -13 88 -103 170
-199 83 -96 168 -197 190 -225 22 -27 43 -52 46 -55 4 -4 123 -152 176 -220 6
-8 40 -51 75 -95 35 -44 74 -96 88 -115 13 -19 27 -37 30 -40 8 -7 124 -163
240 -325 96 -134 405 -592 456 -678 16 -27 36 -59 44 -72 24 -37 194 -318 206
-340 6 -11 55 -99 109 -195 388 -693 741 -1521 966 -2270 27 -91 58 -194 69
-230 23 -76 102 -386 131 -515 11 -49 22 -97 25 -105 4 -18 83 -404 89 -440 4
-22 26 -164 41 -255 2 -16 6 -41 9 -55 2 -14 7 -46 10 -72 3 -26 7 -62 9 -80
3 -18 8 -55 11 -83 3 -27 8 -61 10 -75 6 -42 19 -184 30 -330 3 -41 8 -95 10
-120 21 -254 21 -922 0 -1100 -2 -19 -7 -73 -10 -120 -9 -128 -15 -192 -30
-310 -2 -19 -7 -59 -11 -89 -3 -30 -7 -62 -9 -72 -2 -9 -7 -39 -11 -66 -3 -26
-8 -55 -10 -65 -1 -9 -6 -38 -10 -65 -3 -26 -8 -57 -10 -68 -2 -11 -11 -58
-20 -105 -9 -47 -18 -94 -20 -105 -8 -45 -57 -258 -85 -370 -100 -400 -248
-832 -428 -1250 -133 -309 -401 -818 -577 -1097 -13 -21 -35 -55 -47 -75 -100
-160 -418 -628 -474 -698 -4 -6 -24 -31 -43 -58 -31 -42 -185 -242 -258 -337
-127 -163 -454 -551 -636 -755 -68 -75 -94 -105 -246 -269 -368 -398 -912
-944 -1376 -1381 -555 -522 -584 -555 -600 -684 -12 -97 76 -237 179 -285 105
-49 233 -9 363 111 22 21 96 90 163 153 68 63 137 128 155 144 277 258 614
584 946 916 412 412 554 561 854 895 115 128 131 146 211 240 33 38 65 75 70
81 6 6 27 30 47 55 169 203 219 265 295 362 48 62 90 114 93 117 3 3 50 66
106 140 293 391 596 842 784 1165 246 423 420 766 569 1120 23 55 49 114 56
130 8 17 41 102 73 190 33 88 64 169 68 180 4 11 8 22 9 25 1 3 29 91 62 195
78 242 138 454 157 551 2 11 11 46 19 79 30 119 103 497 122 630 3 23 7 50 9
61 2 12 7 45 11 74 4 29 8 61 10 70 2 9 6 41 10 71 3 30 8 65 10 79 2 14 7 54
10 90 3 36 8 76 10 90 10 67 32 379 40 585 6 118 5 633 0 710 -2 33 -7 112
-10 175 -9 174 -22 345 -30 400 -2 14 -6 54 -10 90 -3 36 -8 81 -10 100 -3 19
-7 55 -10 80 -3 25 -10 72 -15 105 -5 33 -12 80 -15 105 -3 25 -8 56 -10 70
-3 14 -7 41 -10 60 -3 19 -7 46 -10 60 -3 14 -7 41 -10 60 -52 319 -193 900
-311 1280 -58 187 -196 591 -224 655 -4 11 -27 70 -50 130 -57 146 -155 385
-191 463 -16 35 -29 66 -29 68 0 3 -15 37 -34 77 -18 40 -53 115 -77 167 -39
85 -287 584 -341 685 -21 41 -196 357 -238 430 -186 330 -529 860 -791 1225
-356 494 -808 1053 -1164 1436 -252 273 -285 308 -450 474 -138 141 -428 425
-531 520 -71 67 -202 188 -264 245 -216 198 -666 578 -945 801 -82 65 -155
123 -162 129 -24 20 -39 31 -103 80 -36 27 -67 52 -70 55 -3 3 -21 17 -40 30
-19 13 -37 27 -40 30 -9 10 -244 186 -430 321 -165 120 -268 194 -482 344 -76
54 -1022 686 -1163 777 -55 36 -158 103 -230 149 -190 124 -451 292 -480 309
-14 8 -218 139 -455 290 -236 151 -441 282 -455 290 -34 20 -714 456 -835 535
-19 13 -141 92 -270 175 -664 431 -1142 760 -1424 978 -45 34 -92 71 -106 82
-35 26 -259 209 -290 236 -14 12 -47 41 -75 64 -181 153 -568 532 -715 700
-45 52 -95 109 -109 125 -52 60 -219 272 -279 355 -34 47 -65 90 -70 95 -25
30 -152 226 -152 235 0 5 -3 10 -8 10 -4 0 -12 9 -17 20 -6 10 -35 61 -64 112
-223 379 -363 755 -426 1138 -4 25 -9 54 -11 65 -18 91 -26 489 -12 635 18
187 56 327 129 475 79 161 183 285 327 392 205 152 523 255 772 248 63 -2 129
-6 145 -9 17 -4 44 -9 60 -12 62 -11 193 -57 275 -96 295 -141 520 -388 610
-673 28 -89 35 -245 14 -325 -15 -55 -68 -172 -88 -193 -6 -7 -29 -35 -51 -62
-59 -74 -161 -172 -209 -200 -55 -32 -140 -53 -196 -48 -92 8 -190 48 -176 72
2 3 7 24 10 46 7 46 -7 76 -146 320 -72 125 -65 118 -96 101 -15 -9 -76 -38
-137 -67 -160 -74 -174 -92 -191 -234 -17 -146 -6 -313 28 -412 45 -128 175
-268 316 -340 138 -71 339 -95 512 -62 184 35 401 138 562 267 297 236 463
586 460 967 0 50 -3 104 -5 120 -3 17 -9 50 -12 75 -7 42 -9 54 -19 98 -2 9
-16 53 -31 97 -69 208 -206 424 -384 608 -335 347 -764 533 -1249 541 -46 1
-84 1 -85 0z"/>
<path d="M9176 28219 c-2 -8 -7 -34 -10 -59 -3 -25 -8 -56 -11 -70 -3 -14 -9
-47 -15 -75 -13 -69 -16 -82 -34 -151 -20 -76 -91 -285 -117 -341 -10 -23 -19
-45 -19 -48 0 -14 -144 -293 -195 -377 -30 -50 -55 -92 -55 -94 0 -7 -168
-255 -234 -344 -38 -52 -79 -108 -91 -125 -156 -215 -351 -628 -408 -865 -85
-354 26 -702 315 -987 56 -56 183 -163 192 -163 0 0 0 44 -1 97 -3 249 79 505
251 773 83 130 97 151 272 380 166 219 228 315 305 470 80 163 143 351 164
495 4 22 9 51 12 65 12 58 11 389 -2 480 -35 251 -99 473 -212 733 -75 173
-101 224 -107 206z"/>
<path d="M4061 27412 c-33 -187 -36 -470 -6 -662 2 -14 7 -45 10 -70 8 -66 45
-250 56 -286 5 -17 11 -40 13 -50 51 -257 244 -741 422 -1057 322 -570 735
-890 1399 -1086 73 -21 304 -75 365 -85 19 -3 58 -10 87 -15 29 -6 74 -13 100
-17 26 -3 57 -8 68 -10 11 -2 40 -6 65 -9 25 -3 56 -8 70 -10 14 -3 48 -7 75
-10 28 -3 61 -8 75 -10 14 -2 50 -6 80 -10 30 -3 71 -8 90 -10 19 -3 58 -7 85
-10 28 -3 64 -7 80 -9 17 -2 62 -7 100 -11 39 -4 79 -9 89 -11 11 -2 15 0 10
4 -5 5 -36 31 -69 58 -33 27 -71 59 -85 71 -14 11 -106 89 -205 173 -99 83
-204 173 -234 198 -59 51 -75 65 -225 192 -225 191 -530 439 -676 550 -40 30
-77 60 -84 65 -15 14 -170 127 -301 220 -235 168 -327 246 -529 450 -158 160
-155 157 -210 225 -20 25 -45 56 -57 70 -196 242 -363 539 -504 895 -37 94
-71 179 -75 190 -5 11 -19 45 -31 75 -12 30 -25 59 -29 63 -4 4 -12 -23 -19
-61z"/>
<path d="M10235 27360 c4 -33 9 -72 11 -87 16 -124 21 -384 11 -503 -7 -77 -9
-87 -27 -176 -6 -28 -13 -63 -16 -77 -10 -56 -84 -249 -141 -369 -61 -125
-119 -231 -273 -488 -92 -154 -140 -249 -188 -370 -30 -76 -77 -222 -87 -272
-3 -16 -7 -40 -10 -55 -3 -16 -8 -35 -10 -43 -26 -91 -27 -460 -1 -580 86
-409 270 -713 581 -965 75 -61 250 -175 268 -175 10 0 14 17 16 58 2 31 4 77
6 102 2 25 6 86 9 135 8 121 18 237 21 255 1 8 6 40 9 70 24 193 201 1002 311
1420 29 113 56 219 59 235 4 17 9 41 11 55 3 14 8 41 11 60 3 19 7 46 10 60
23 137 22 404 -2 560 -50 319 -182 642 -387 950 -46 69 -188 260 -194 260 -2
0 -1 -27 2 -60z"/>
<path d="M11170 27360 c0 -17 27 -65 85 -155 212 -325 363 -649 450 -970 26
-96 31 -116 40 -170 3 -16 10 -52 15 -80 9 -50 16 -108 25 -200 6 -61 7 -327
1 -375 -3 -19 -7 -60 -11 -91 -3 -31 -7 -66 -10 -77 -2 -11 -6 -37 -9 -58 -13
-79 -57 -252 -95 -369 -41 -123 -93 -303 -107 -365 -4 -19 -8 -37 -9 -40 -4
-17 -26 -119 -30 -140 -3 -14 -8 -47 -11 -75 -4 -27 -8 -52 -9 -55 -17 -29
-25 -432 -12 -570 17 -174 87 -451 138 -552 5 -10 9 -22 9 -28 0 -41 214 -418
292 -515 5 -5 33 -41 64 -80 156 -196 347 -385 609 -600 91 -75 100 -80 86
-42 -19 51 -80 322 -96 432 -4 22 -8 51 -10 65 -2 14 -7 52 -11 85 -3 33 -8
67 -9 76 -2 9 -7 70 -11 135 -13 221 -5 525 20 714 4 30 9 73 12 95 7 59 54
338 59 344 1 3 6 22 9 41 8 48 10 60 41 180 14 58 28 115 30 127 3 11 32 113
65 225 64 216 74 274 74 408 0 142 -12 250 -45 410 -11 52 -22 106 -25 120 -3
14 -7 33 -10 42 -3 9 -7 25 -9 35 -50 231 -185 565 -327 812 -82 142 -251 391
-287 421 -4 3 -30 34 -60 70 -168 206 -477 482 -741 663 -141 97 -180 120
-180 107z"/>
<path d="M12836 26769 c5 -8 39 -59 75 -114 60 -92 123 -192 152 -240 7 -11
26 -42 43 -70 156 -249 362 -658 443 -880 49 -131 110 -327 126 -405 24 -111
34 -162 40 -195 29 -182 34 -260 30 -470 -3 -192 -6 -241 -20 -330 -2 -16 -7
-48 -11 -70 -5 -33 -14 -82 -39 -195 -1 -8 -8 -33 -13 -55 -6 -22 -13 -57 -16
-77 -3 -21 -11 -57 -16 -80 -6 -24 -12 -50 -14 -58 -2 -8 -11 -53 -20 -100 -9
-47 -18 -94 -20 -105 -2 -11 -16 -78 -31 -150 -25 -119 -80 -369 -89 -405 -3
-8 -9 -37 -16 -65 -6 -27 -22 -88 -35 -135 -32 -112 -48 -213 -48 -310 0 -50
14 -196 23 -230 5 -19 12 -51 15 -70 25 -147 171 -467 300 -660 197 -293 468
-571 745 -762 70 -48 222 -138 234 -138 4 0 5 73 1 163 -7 197 -8 498 0 587 5
57 11 108 30 260 3 19 7 53 9 75 7 51 15 113 21 145 3 14 7 43 11 65 3 22 7
51 10 65 2 14 6 43 9 65 3 22 10 63 15 90 5 28 12 67 15 88 12 85 16 115 25
167 5 30 12 71 15 90 3 19 7 46 10 60 2 14 7 43 10 65 3 22 9 65 14 95 5 30 7
58 5 62 -2 4 0 9 6 13 6 4 8 10 5 14 -2 5 0 33 4 63 5 30 12 86 16 124 4 38 8
80 10 93 22 138 23 805 1 872 -3 8 -7 43 -11 79 -5 62 -19 155 -30 210 -3 14
-8 41 -11 60 -19 113 -80 342 -130 487 -86 254 -236 566 -382 793 -53 83 -181
265 -214 305 -150 182 -206 243 -338 375 -169 169 -198 195 -340 310 -232 186
-654 477 -624 429z"/>
<path d="M15711 25285 c2 -5 33 -68 68 -140 154 -318 262 -612 336 -920 35
-148 37 -156 59 -305 22 -145 25 -176 33 -284 12 -177 6 -445 -12 -591 -3 -22
-7 -60 -10 -85 -8 -68 -33 -209 -59 -335 -13 -61 -61 -230 -93 -328 -20 -62
-38 -114 -38 -117 -1 -3 -5 -12 -8 -20 -4 -8 -22 -57 -42 -109 -42 -112 -37
-100 -156 -363 -89 -196 -170 -459 -199 -648 -6 -41 -13 -86 -16 -100 -24
-146 -23 -445 2 -630 95 -696 500 -1328 1123 -1753 58 -40 67 -44 68 -24 1 27
15 193 18 217 2 14 7 72 10 130 4 58 8 121 10 140 2 19 6 80 10 135 4 55 8
107 10 115 2 8 6 58 10 110 4 52 8 102 10 110 2 9 6 47 9 85 4 39 9 86 11 105
3 19 7 53 10 75 3 22 6 51 8 65 2 14 7 50 11 80 4 30 13 91 21 135 8 44 16 96
19 115 3 19 8 45 10 56 2 12 7 37 10 55 4 27 47 240 71 354 6 24 24 112 29
140 6 31 131 582 171 755 24 102 95 446 100 480 3 25 10 72 15 105 10 63 18
140 25 215 10 114 4 436 -9 518 -3 15 -8 52 -11 82 -3 30 -8 62 -11 71 -3 10
-6 30 -8 45 -13 96 -85 332 -150 489 -188 451 -470 862 -855 1245 -204 203
-308 295 -511 454 -107 84 -104 82 -99 71z"/>
<path d="M18368 23565 c4 -11 23 -51 41 -90 126 -266 246 -655 285 -920 4 -23
8 -50 10 -60 2 -11 7 -49 11 -85 4 -36 8 -72 10 -80 14 -74 20 -221 20 -475 0
-303 -4 -376 -30 -605 -11 -89 -49 -354 -60 -410 -3 -14 -10 -52 -16 -85 -37
-211 -122 -552 -215 -870 -35 -121 -66 -227 -68 -235 -2 -8 -43 -141 -91 -295
-48 -154 -88 -284 -90 -290 -1 -5 -4 -17 -7 -25 -3 -8 -14 -46 -26 -85 -12
-38 -28 -92 -36 -120 -40 -133 -110 -432 -121 -521 -4 -27 -8 -56 -11 -64 -5
-20 -13 -96 -22 -206 -16 -200 0 -423 43 -589 25 -98 58 -199 67 -210 4 -5 8
-15 8 -23 0 -33 201 -415 388 -737 58 -99 123 -211 146 -248 22 -37 50 -83 61
-102 89 -154 350 -583 352 -581 2 2 6 14 8 27 3 13 9 47 15 74 5 28 12 61 14
75 4 22 17 89 31 160 3 14 9 50 15 80 11 60 17 92 25 130 2 14 7 39 10 55 3
17 7 39 9 50 2 11 18 92 35 180 17 88 33 169 36 180 2 11 17 85 34 165 66 317
133 587 281 1140 22 85 52 198 66 250 14 52 29 109 35 126 5 17 11 40 13 50 2
10 21 84 41 164 20 80 38 152 40 160 2 8 17 76 34 150 16 74 32 146 35 160 2
14 11 59 20 100 8 41 18 89 21 105 2 17 7 41 10 55 2 13 7 42 10 65 3 22 8 51
10 65 9 49 18 112 30 213 3 23 7 58 10 77 27 202 26 807 0 980 -2 14 -9 63
-15 110 -16 120 -17 130 -46 275 -156 795 -529 1530 -1135 2235 -144 168 -354
386 -341 355z"/>
<path d="M5357 23182 c50 -48 139 -133 198 -189 182 -175 313 -271 605 -445
63 -38 122 -73 130 -78 44 -28 317 -163 390 -193 299 -123 597 -171 875 -142
122 12 129 13 175 19 54 8 119 17 140 21 8 2 38 6 65 9 45 6 380 62 429 72 12
2 35 6 51 9 17 3 41 8 55 10 59 12 77 15 105 20 17 3 64 12 105 20 41 8 86 17
100 19 190 36 619 118 637 122 20 5 7 17 -89 83 -120 82 -294 191 -304 191 -3
0 -18 8 -32 19 -39 28 -288 155 -393 202 -166 73 -358 134 -479 153 -19 3 -46
8 -60 12 -14 3 -95 7 -180 9 -117 2 -180 -1 -255 -15 -55 -10 -116 -21 -135
-24 -19 -4 -46 -8 -60 -11 -33 -6 -75 -13 -130 -20 -25 -3 -56 -8 -70 -10
-200 -34 -576 -47 -845 -31 -60 4 -117 9 -125 11 -8 2 -40 7 -70 10 -106 11
-255 37 -375 65 -27 6 -61 14 -75 16 -47 9 -294 85 -384 119 l-90 34 91 -87z"/>
<path d="M20839 21650 c21 -55 103 -346 150 -530 61 -242 137 -611 157 -760 2
-19 9 -60 14 -90 5 -30 11 -73 14 -95 3 -22 8 -60 11 -85 7 -53 15 -122 30
-255 2 -22 7 -76 10 -120 3 -44 8 -98 10 -120 27 -244 27 -1002 0 -1166 -2
-13 -6 -49 -9 -79 -4 -30 -8 -66 -11 -80 -2 -14 -6 -41 -9 -60 -22 -142 -42
-243 -67 -350 -11 -47 -22 -92 -24 -100 -71 -324 -313 -995 -523 -1450 -16
-36 -37 -81 -45 -100 -8 -19 -64 -138 -122 -265 -113 -242 -207 -453 -232
-520 -59 -160 -123 -377 -137 -465 -3 -19 -7 -44 -10 -55 -11 -55 -19 -170
-17 -255 2 -110 5 -144 36 -355 9 -60 18 -125 20 -142 3 -18 9 -52 14 -75 5
-24 13 -63 16 -88 4 -25 17 -99 30 -165 13 -66 27 -136 30 -155 6 -33 44 -213
65 -305 39 -172 54 -239 85 -375 20 -85 38 -164 41 -176 2 -12 22 -97 45 -190
22 -93 43 -180 45 -194 3 -14 16 -72 29 -130 14 -58 30 -129 36 -157 10 -44
10 -59 -3 -91 -15 -38 -15 -38 10 -40 23 -2 24 0 17 35 -6 31 5 67 75 242 45
113 87 220 95 236 7 17 36 91 65 165 50 130 62 160 95 234 8 19 15 37 15 40 0
3 34 76 75 162 41 86 75 158 75 160 0 13 147 247 218 348 519 736 838 1445
1022 2272 37 166 79 406 96 549 3 33 8 68 10 78 1 9 6 54 9 100 4 45 8 93 11
107 18 117 25 805 10 1020 -14 198 -15 215 -21 275 -3 33 -8 76 -10 95 -2 19
-7 60 -10 90 -10 91 -24 198 -30 239 -2 13 -7 45 -11 70 -3 25 -14 96 -25 156
-19 114 -22 126 -39 210 -6 28 -12 59 -14 70 -30 149 -133 499 -206 701 -88
240 -257 614 -351 774 -14 25 -52 90 -83 145 -32 55 -67 116 -78 135 -29 47
-226 348 -238 363 -6 7 -54 71 -107 142 -96 130 -260 335 -327 410 -29 32 -34
35 -27 15z"/>
<path d="M10217 21464 c-1 -1 -42 -5 -91 -9 -49 -4 -98 -8 -110 -11 -11 -2
-37 -6 -56 -8 -19 -3 -46 -7 -60 -10 -22 -5 -58 -12 -112 -22 -91 -16 -320
-85 -483 -147 -101 -38 -264 -94 -300 -104 -5 -1 -64 -16 -130 -34 -66 -17
-129 -33 -140 -35 -64 -14 -237 -45 -280 -50 -27 -3 -55 -7 -62 -9 -58 -19
-536 -27 -703 -12 -307 27 -726 132 -983 245 -26 11 -47 17 -47 12 0 -4 4 -10
9 -12 6 -1 50 -42 98 -89 201 -195 321 -282 563 -408 306 -158 678 -304 936
-366 123 -30 287 -63 344 -71 25 -3 52 -7 60 -9 8 -2 42 -7 75 -10 33 -4 76
-9 95 -12 62 -9 522 -11 605 -3 159 17 191 21 275 35 116 20 138 25 190 36 25
6 54 12 64 15 75 15 215 56 421 124 239 79 397 128 434 135 11 2 53 13 93 24
77 21 311 81 340 86 23 5 371 90 502 123 l109 28 -44 36 c-154 126 -452 297
-661 378 -103 41 -321 104 -389 114 -20 3 -42 7 -50 10 -14 5 -48 10 -154 21
-56 6 -352 14 -358 9z"/>
<path d="M12507 20054 c-1 -1 -42 -4 -92 -8 -224 -15 -545 -87 -965 -216 -74
-23 -146 -44 -159 -46 -13 -3 -31 -9 -40 -13 -9 -5 -20 -10 -26 -10 -20 -3
-62 -14 -144 -37 -46 -13 -93 -26 -105 -28 -11 -3 -66 -16 -121 -30 -55 -15
-109 -28 -120 -31 -11 -2 -29 -6 -40 -9 -57 -14 -366 -76 -405 -81 -25 -3 -81
-12 -125 -20 -44 -7 -114 -16 -155 -20 -41 -4 -84 -9 -95 -11 -98 -19 -637
-26 -815 -11 -118 10 -129 11 -290 33 -131 18 -447 91 -595 138 l-80 25 185
-182 c231 -228 301 -292 428 -391 299 -234 603 -392 912 -471 177 -46 282 -59
485 -59 227 0 340 16 640 90 77 19 147 37 157 39 14 3 230 63 488 136 36 10
142 41 235 69 294 88 630 186 669 195 10 2 58 15 105 29 75 21 141 38 148 38
2 0 26 6 55 14 29 8 94 24 143 35 50 11 97 22 105 24 49 12 322 65 355 70 22
3 51 8 65 10 14 3 43 7 65 10 22 3 56 8 75 11 47 8 71 11 160 19 41 4 82 9 92
10 19 4 242 17 311 18 26 1 47 2 47 3 0 5 -147 109 -275 195 -385 260 -650
381 -965 444 -50 10 -305 25 -313 19z"/>
<path d="M14058 18785 c-2 -2 -41 -6 -88 -10 -46 -3 -87 -8 -90 -10 -4 -2 -29
-7 -56 -10 -157 -21 -913 -268 -1179 -385 -79 -35 -376 -166 -430 -191 -138
-62 -507 -176 -633 -195 -20 -3 -68 -12 -106 -20 -38 -8 -71 -13 -73 -10 -2 2
-21 0 -41 -5 -125 -29 -484 -31 -732 -4 -52 5 -254 20 -430 30 -101 6 -171 10
-365 20 -66 4 -138 8 -160 10 -21 2 -43 1 -47 -2 -24 -14 202 -227 342 -322
295 -200 770 -401 1146 -485 113 -26 135 -30 219 -42 28 -3 59 -8 70 -10 159
-30 575 -24 787 11 276 46 488 111 898 275 134 53 593 193 740 225 229 49 370
73 525 90 247 27 625 27 905 0 19 -2 80 -6 135 -10 55 -3 129 -8 165 -11 99
-7 194 -13 305 -19 54 -4 103 -9 107 -11 27 -17 -13 25 -179 192 -344 343
-470 452 -673 587 -239 158 -485 255 -755 297 -60 9 -300 21 -307 15z"/>
<path d="M23850 18440 c0 -14 4 -52 9 -85 6 -33 13 -84 16 -114 4 -30 8 -63
10 -73 2 -11 7 -46 10 -79 4 -33 8 -68 10 -77 1 -9 6 -55 10 -102 3 -47 8
-101 10 -120 24 -240 24 -807 0 -1130 -13 -174 -34 -388 -50 -490 -2 -14 -7
-50 -10 -80 -8 -71 -39 -271 -59 -380 -8 -47 -17 -100 -21 -119 -35 -201 -75
-384 -157 -719 -127 -526 -270 -875 -543 -1327 -163 -271 -475 -701 -691 -955
-12 -14 -77 -90 -144 -170 -68 -80 -146 -172 -175 -205 -29 -33 -99 -114 -155
-180 -56 -66 -112 -131 -124 -145 -12 -14 -35 -43 -51 -65 -17 -22 -32 -42
-36 -45 -3 -3 -29 -36 -57 -75 -28 -38 -55 -74 -60 -80 -20 -25 -95 -139 -147
-225 -146 -240 -256 -512 -299 -736 -10 -52 -36 -193 -40 -219 -9 -52 -56
-330 -60 -350 -2 -11 -7 -42 -10 -70 -4 -27 -9 -57 -11 -65 -2 -8 -7 -37 -11
-65 -3 -27 -7 -57 -8 -65 -2 -8 -6 -40 -11 -70 -4 -30 -9 -64 -11 -75 -3 -11
-7 -38 -9 -60 -3 -22 -7 -51 -10 -65 -2 -14 -7 -45 -10 -70 -3 -25 -8 -56 -10
-70 -2 -14 -7 -45 -10 -70 -4 -25 -8 -56 -10 -70 -2 -14 -7 -45 -10 -70 -3
-25 -12 -88 -20 -140 -7 -52 -17 -124 -21 -160 -4 -36 -8 -67 -9 -70 -1 -3 -5
-32 -9 -65 -5 -33 -10 -71 -12 -85 -1 -14 -10 -74 -19 -135 -8 -60 -18 -128
-20 -150 -13 -94 -18 -131 -21 -150 -13 -73 -25 -188 -20 -200 8 -22 39 -18
60 8 11 12 49 56 86 97 36 41 126 147 200 235 74 88 136 162 139 165 4 3 42
46 85 95 93 105 308 320 386 385 29 25 58 50 64 55 41 40 368 297 611 481 160
120 297 224 305 230 348 273 505 408 711 614 192 192 265 274 478 535 121 150
338 477 458 690 62 111 198 389 247 505 27 63 57 134 67 157 11 24 19 47 19
53 0 6 4 18 10 28 31 56 142 412 195 622 75 299 142 699 161 950 2 36 7 79 9
95 25 174 25 1048 0 1220 -2 17 -6 59 -10 95 -9 106 -15 161 -26 235 -6 39
-13 86 -15 105 -7 55 -34 208 -50 282 -7 37 -16 80 -19 95 -2 16 -16 75 -31
133 -14 58 -27 112 -29 120 -31 140 -186 599 -250 745 -8 17 -26 59 -40 95
-74 180 -250 532 -332 662 -13 21 -23 39 -23 42 0 2 -18 33 -40 67 -21 35 -51
84 -66 109 -63 104 -235 359 -266 395 -4 5 -8 -2 -8 -15z"/>
<path d="M15588 16965 c-2 -1 -46 -5 -98 -9 -52 -3 -106 -8 -120 -10 -14 -3
-47 -7 -75 -11 -27 -3 -78 -10 -113 -16 -34 -5 -84 -12 -110 -15 -26 -3 -54
-7 -62 -9 -8 -2 -35 -7 -60 -10 -25 -3 -94 -15 -155 -26 -338 -63 -443 -90
-864 -215 -157 -47 -295 -87 -306 -89 -11 -3 -51 -14 -90 -25 -179 -53 -440
-119 -535 -137 -14 -2 -45 -9 -70 -14 -52 -12 -55 -13 -176 -33 -50 -9 -113
-18 -140 -22 -27 -3 -60 -7 -74 -9 -75 -13 -219 -20 -415 -20 -243 0 -356 8
-510 36 -33 6 -71 13 -85 16 -14 2 -60 13 -104 24 -43 11 -82 19 -86 17 -21
-8 361 -274 526 -367 139 -78 408 -194 574 -247 25 -8 54 -19 65 -24 25 -11
231 -71 264 -77 14 -2 28 -6 32 -8 8 -6 170 -42 269 -60 14 -3 36 -7 50 -10
14 -3 43 -8 65 -11 22 -3 63 -9 90 -14 28 -5 79 -12 115 -16 36 -3 72 -7 81
-9 49 -10 293 -19 484 -20 263 0 518 15 665 40 14 2 48 7 75 10 55 6 57 7 195
30 118 19 254 48 473 100 34 8 74 17 89 19 15 3 31 7 35 9 5 3 33 8 63 12 30
4 57 8 60 10 3 2 26 6 50 10 25 3 58 8 74 11 32 5 75 10 201 21 149 14 470 7
575 -11 14 -3 43 -7 65 -11 22 -3 47 -7 55 -10 8 -2 31 -6 50 -9 54 -8 245
-65 339 -101 171 -65 321 -146 631 -339 238 -148 290 -180 293 -175 1 2 10 14
20 26 18 21 17 24 -143 255 -88 128 -167 241 -175 251 -8 9 -15 19 -15 22 0 9
-224 312 -317 428 -88 110 -251 283 -335 354 -42 37 -194 152 -223 170 -352
217 -658 309 -1057 318 -59 1 -109 1 -110 0z"/>
<path d="M15388 14625 c-2 -2 -97 -6 -213 -9 -115 -3 -268 -8 -340 -11 -347
-13 -410 -15 -550 -20 -82 -3 -188 -7 -235 -10 -47 -3 -164 -7 -260 -11 -96
-3 -211 -7 -255 -9 -44 -2 -118 -4 -165 -5 l-85 -2 75 -71 c79 -73 323 -291
356 -317 376 -298 830 -518 1369 -665 151 -41 250 -66 335 -85 119 -27 128
-29 165 -36 17 -2 46 -9 65 -14 19 -5 49 -11 65 -14 17 -3 75 -14 130 -25 55
-11 111 -22 125 -25 61 -12 317 -66 335 -71 11 -2 105 -25 209 -50 374 -90
698 -189 1041 -320 71 -27 92 -36 177 -74 26 -11 50 -21 52 -21 14 0 295 -140
411 -205 495 -276 905 -614 1242 -1025 57 -69 74 -85 69 -65 -3 11 -7 31 -10
45 -2 14 -9 45 -15 70 -5 25 -12 57 -15 73 -2 15 -7 35 -10 45 -3 9 -7 28 -10
42 -2 14 -12 57 -21 95 -9 39 -18 77 -20 85 -2 8 -11 44 -20 80 -9 36 -18 72
-20 80 -22 107 -111 393 -177 570 -50 134 -134 319 -199 435 -51 92 -137 231
-161 260 -5 6 -32 42 -60 80 -146 197 -366 402 -593 552 -480 318 -1069 537
-1640 608 -27 4 -61 8 -75 10 -14 2 -56 7 -95 10 -38 4 -86 9 -105 12 -34 5
-867 12 -872 8z"/>
<path d="M14036 12754 c65 -175 178 -413 256 -542 21 -34 38 -67 38 -72 0 -6
4 -10 8 -10 5 0 15 -15 24 -32 21 -44 162 -240 256 -358 70 -87 325 -350 397
-410 200 -168 317 -254 498 -369 70 -45 129 -81 131 -81 3 0 40 -22 83 -48 68
-43 306 -178 473 -269 190 -104 280 -153 340 -185 79 -42 474 -259 490 -268 8
-5 99 -56 201 -114 520 -292 961 -586 1289 -860 99 -83 331 -311 387 -381 151
-188 203 -262 290 -415 104 -184 181 -378 238 -602 37 -149 32 -152 100 54 90
275 120 484 120 823 0 218 -3 251 -30 435 -25 171 -110 493 -150 571 -8 15
-15 32 -15 38 0 16 -60 147 -123 271 -170 333 -409 614 -708 833 -25 19 -44
31 -209 130 -426 258 -935 511 -1390 691 -107 43 -204 82 -215 87 -27 12 -215
79 -240 86 -11 2 -29 9 -40 13 -21 10 -404 132 -490 157 -27 8 -61 18 -75 23
-14 5 -79 25 -145 45 -176 54 -478 153 -570 187 -379 141 -596 238 -838 375
-68 38 -295 185 -385 249 l-22 16 26 -68z"/>
<path d="M25702 11848 c-22 -35 -43 -79 -47 -98 -4 -19 -22 -82 -40 -140 -152
-498 -415 -996 -790 -1500 -60 -80 -111 -147 -114 -150 -4 -3 -22 -25 -41 -50
-61 -78 -208 -253 -300 -355 -25 -27 -49 -55 -55 -61 -173 -195 -421 -443
-600 -600 -68 -59 -230 -196 -250 -212 -21 -16 -120 -97 -125 -103 -14 -15
-384 -288 -520 -383 -174 -122 -619 -419 -810 -541 -152 -96 -526 -341 -543
-355 -7 -5 -57 -44 -112 -86 -262 -201 -512 -444 -746 -724 -85 -102 -237
-298 -279 -360 -8 -12 -22 -32 -31 -44 -114 -153 -404 -617 -544 -871 -15 -27
-49 -89 -76 -137 -27 -48 -67 -122 -90 -165 -23 -43 -47 -87 -54 -99 -20 -31
-135 -252 -135 -257 0 -3 51 14 113 38 62 24 198 73 303 109 104 37 200 72
214 78 14 5 68 25 120 43 653 228 1060 414 1560 713 148 88 471 296 505 324 5
5 73 54 150 109 199 144 494 378 629 499 303 272 263 234 487 456 155 153 311
315 420 435 218 242 563 656 694 834 17 22 32 42 35 45 17 15 218 292 287 395
227 341 408 707 537 1086 31 91 58 174 61 185 2 10 17 66 34 124 51 180 104
437 136 660 3 25 8 56 10 70 2 14 7 57 11 95 3 39 8 77 9 86 2 9 6 54 10 100
3 46 8 111 11 144 6 67 14 725 9 725 -1 0 -21 -28 -43 -62z"/>
<path d="M15975 9243 c60 -367 150 -619 340 -948 101 -176 314 -480 430 -614
12 -14 78 -91 146 -171 68 -80 157 -183 198 -230 41 -47 86 -98 100 -115 22
-24 192 -225 283 -334 251 -298 499 -699 620 -1000 68 -169 140 -427 163 -581
3 -25 8 -56 10 -70 6 -45 18 -164 18 -192 0 -16 4 -28 7 -28 7 0 132 203 232
380 173 303 280 584 314 830 10 68 11 331 2 385 -79 460 -277 890 -568 1229
-191 222 -403 407 -665 577 -161 104 -167 108 -185 116 -8 4 -31 16 -50 28
-19 12 -93 52 -165 90 -173 90 -274 144 -310 165 -16 10 -55 31 -85 47 -30 17
-71 39 -90 50 -19 11 -100 57 -180 103 -80 45 -165 94 -190 108 -25 14 -62 36
-82 49 -21 12 -42 23 -47 23 -5 0 -14 7 -21 15 -7 9 -15 13 -18 10 -3 -3 -10
-1 -16 4 -14 12 -186 111 -192 111 -3 0 -2 -17 1 -37z"/>
<path d="M15457 7523 c-2 -4 -3 -28 -2 -53 4 -80 16 -224 20 -250 2 -14 7 -45
10 -70 3 -25 8 -52 10 -60 2 -8 7 -33 10 -55 6 -45 5 -40 33 -170 110 -500
335 -1026 687 -1605 286 -470 465 -925 510 -1290 4 -30 10 -77 15 -104 7 -49
5 -448 -3 -496 -3 -14 -12 -70 -21 -125 -9 -55 -25 -133 -35 -173 l-19 -73 56
47 c58 49 273 262 348 345 75 82 230 294 287 390 133 227 234 482 263 663 3
21 8 48 10 60 20 103 23 350 5 463 -6 37 -14 84 -17 103 -18 115 -83 300 -160
454 -47 96 -156 271 -205 331 -160 194 -245 282 -479 495 -102 93 -205 186
-230 210 -9 8 -54 49 -100 90 -47 41 -87 77 -90 80 -3 3 -45 41 -95 85 -49 44
-102 91 -116 105 -14 14 -54 50 -90 80 -35 30 -68 60 -74 66 -5 6 -43 39 -84
75 -41 35 -86 75 -101 89 -14 14 -55 50 -90 80 -35 30 -75 66 -90 80 -40 36
-113 102 -137 123 -12 10 -23 15 -26 10z"/>
<path d="M24444 6443 c-32 -38 -63 -73 -69 -79 -5 -6 -30 -36 -55 -65 -57 -68
-290 -340 -304 -355 -98 -104 -193 -199 -242 -244 -108 -99 -138 -124 -239
-206 -522 -420 -1106 -747 -1835 -1025 -179 -68 -712 -243 -805 -264 -11 -2
-45 -11 -75 -20 -30 -8 -150 -40 -267 -70 -117 -31 -265 -71 -330 -90 -65 -20
-122 -37 -128 -39 -25 -7 -208 -68 -275 -91 -134 -48 -320 -123 -480 -196
-175 -79 -516 -259 -560 -295 -8 -6 -31 -20 -50 -31 -55 -30 -207 -130 -305
-202 -339 -246 -631 -524 -895 -850 -107 -132 -278 -381 -262 -381 4 0 165 57
357 126 600 216 902 316 1350 448 96 29 748 206 777 211 11 3 79 21 152 41 72
20 187 52 256 71 409 113 944 283 1095 348 17 7 68 27 115 45 47 17 103 40
125 50 22 9 85 37 140 60 165 70 344 159 590 295 11 6 39 23 62 38 24 15 45
27 48 27 10 0 239 153 350 233 323 234 610 507 879 837 43 52 86 104 95 115
45 55 186 253 253 355 225 345 402 701 536 1081 35 98 62 189 58 189 -2 0 -30
-30 -62 -67z"/>
</g>
</svg>
